<svg width="512" height="512" viewBox="0 0 512 512" fill="none" xmlns="http://www.w3.org/2000/svg">
    <rect width="512" height="512" rx="32" fill="white"/>
    <path d="M216.62 182.285H135.401C131.191 182.285 127.79 178.653 127.79 174.184C127.79 169.714 131.202 166.083 135.401 166.083H216.62C220.83 166.083 224.231 169.714 224.231 174.184C224.231 178.653 220.819 182.285 216.62 182.285Z" fill="#A91116"/>
    <path d="M199.73 250.47H118.521C114.312 250.47 110.91 246.838 110.91 242.369C110.91 237.899 114.322 234.267 118.521 234.267H199.74C203.95 234.267 207.351 237.899 207.351 242.369C207.351 246.838 203.939 250.47 199.73 250.47Z" fill="#A91116"/>
    <path d="M183.293 216.11H86.8212C82.6221 216.11 79.2209 212.478 79.2209 208.009C79.2209 203.539 82.6221 199.907 86.8212 199.907H183.293C187.492 199.907 190.894 203.539 190.894 208.009C190.894 212.478 187.492 216.11 183.293 216.11Z" fill="#A91116"/>
    <path d="M200.988 352.012C209.06 340.568 207.515 324.826 197.538 316.852C187.561 308.879 172.928 311.692 164.856 323.137C156.784 334.582 158.329 350.323 168.306 358.297C178.283 366.271 192.916 363.457 200.988 352.012Z" fill="#0050A6"/>
    <path d="M442.951 147.456H251.812C249.492 147.456 247.476 149.121 246.899 151.512L220.875 258.906C219.637 264.035 223.269 269.041 228.245 269.041H326.008C330.218 269.041 333.619 272.673 333.619 277.142C333.619 281.612 330.207 285.243 326.008 285.243H77.7101C75.4847 285.243 73.5216 286.786 72.8603 289.054L61.7854 327.247C60.2738 332.465 63.9374 337.739 69.0602 337.739H152.19C152.673 327.604 157.323 317.57 165.616 311.011C171.243 306.564 177.794 304.206 184.564 304.206C194.275 304.206 203.271 309.234 208.646 317.671C212.467 323.671 214.052 330.733 213.653 337.739H258.446C258.929 327.604 263.579 317.57 271.872 311.011C277.499 306.564 284.05 304.206 290.831 304.206C300.541 304.206 309.538 309.234 314.912 317.671C318.733 323.671 320.318 330.733 319.92 337.739H364.597C366.896 337.739 368.901 336.097 369.499 333.739L396.457 226.725C397.759 221.574 394.106 216.523 389.098 216.523H291.986C287.776 216.523 284.375 212.892 284.375 208.422C284.375 203.952 287.787 200.321 291.986 200.321H434.805C437.061 200.321 439.046 198.734 439.675 196.432L450.246 157.837C451.685 152.641 448.021 147.456 442.951 147.456Z" fill="#0050A6"/>
    <path d="M307.257 352.014C315.329 340.569 313.785 324.828 303.808 316.854C293.83 308.88 279.198 311.694 271.126 323.139C263.054 334.583 264.598 350.325 274.576 358.299C284.553 366.272 299.185 363.458 307.257 352.014Z" fill="#0050A6"/>
</svg>
