<?xml version="1.0" encoding="utf-8"?>
<!-- Generator: Adobe Illustrator 24.0.0, SVG Export Plug-In . SVG Version: 6.00 Build 0)  -->
<svg version="1.1" id="Layer_1" xmlns="http://www.w3.org/2000/svg" xmlns:xlink="http://www.w3.org/1999/xlink" x="0px" y="0px"
     viewBox="0 0 1200 192.75" style="enable-background:new 0 0 1200 192.75;" xml:space="preserve">
<style type="text/css">
	.st0{fill:#0050A6;}
	.st1{fill:#A91116;}
</style>
    <g>
	<g>
		<g>
			<path class="st0" d="M380.65,110.39c-0.45,0.79-0.93,1.36-1.43,1.71c-0.51,0.36-1.13,0.53-1.88,0.53c-0.79,0-1.64-0.29-2.56-0.87
				c-0.92-0.58-2.01-1.23-3.29-1.94c-1.27-0.71-2.76-1.36-4.47-1.94s-3.72-0.87-6.04-0.87c-2.1,0-3.93,0.25-5.51,0.76
				c-1.57,0.51-2.89,1.21-3.96,2.11s-1.86,1.98-2.39,3.23c-0.52,1.26-0.79,2.63-0.79,4.13c0,1.91,0.53,3.5,1.6,4.78
				s2.48,2.36,4.24,3.26c1.76,0.9,3.76,1.7,6.01,2.42c2.25,0.71,4.55,1.47,6.91,2.28c2.36,0.81,4.66,1.74,6.91,2.81
				c2.25,1.07,4.25,2.42,6.01,4.04c1.76,1.63,3.17,3.62,4.24,5.98c1.07,2.36,1.6,5.23,1.6,8.6c0,3.67-0.63,7.11-1.88,10.31
				c-1.25,3.2-3.09,5.99-5.51,8.37c-2.42,2.38-5.37,4.25-8.85,5.62c-3.48,1.37-7.47,2.05-11.97,2.05c-2.58,0-5.13-0.25-7.64-0.76
				c-2.51-0.51-4.92-1.23-7.22-2.16c-2.3-0.94-4.47-2.06-6.49-3.37c-2.02-1.31-3.82-2.77-5.39-4.38l4.44-7.25
				c0.37-0.52,0.86-0.96,1.46-1.32c0.6-0.36,1.24-0.53,1.91-0.53c0.94,0,1.95,0.38,3.03,1.15c1.09,0.77,2.38,1.62,3.88,2.56
				c1.5,0.94,3.25,1.79,5.25,2.56c2,0.77,4.41,1.15,7.22,1.15c4.31,0,7.64-1.02,10-3.06c2.36-2.04,3.54-4.97,3.54-8.79
				c0-2.13-0.53-3.88-1.6-5.22s-2.48-2.48-4.24-3.4c-1.76-0.92-3.76-1.69-6.01-2.33c-2.25-0.64-4.53-1.33-6.85-2.08
				c-2.32-0.75-4.61-1.65-6.85-2.7c-2.25-1.05-4.25-2.42-6.01-4.1c-1.76-1.69-3.17-3.79-4.24-6.32c-1.07-2.53-1.6-5.65-1.6-9.35
				c0-2.96,0.59-5.84,1.77-8.65c1.18-2.81,2.89-5.3,5.14-7.47c2.25-2.17,5.02-3.91,8.31-5.23c3.3-1.31,7.08-1.97,11.35-1.97
				c4.79,0,9.21,0.75,13.26,2.25c4.04,1.5,7.49,3.6,10.34,6.29L380.65,110.39z"/>
            <path class="st0" d="M467.5,95.61v81.23h-15.17v-35.5h-38.15v35.5h-15.17V95.61h15.17v34.94h38.15V95.61H467.5z"/>
            <path class="st0" d="M500.75,176.85h-15.17V95.61h15.17V176.85z"/>
            <path class="st0" d="M545.3,95.61c5.43,0,10.13,0.64,14.1,1.91c3.97,1.27,7.25,3.05,9.83,5.34c2.58,2.28,4.5,5.02,5.76,8.2
				c1.25,3.18,1.88,6.67,1.88,10.45c0,3.93-0.66,7.54-1.97,10.81c-1.31,3.28-3.28,6.1-5.9,8.45c-2.62,2.36-5.91,4.2-9.86,5.51
				c-3.95,1.31-8.57,1.97-13.85,1.97h-11.29v28.59H518.9V95.61H545.3z M545.3,136.45c2.77,0,5.19-0.35,7.25-1.04
				c2.06-0.69,3.77-1.69,5.14-2.98c1.37-1.29,2.39-2.86,3.06-4.72c0.67-1.85,1.01-3.92,1.01-6.21c0-2.17-0.34-4.14-1.01-5.9
				c-0.67-1.76-1.69-3.26-3.03-4.49c-1.35-1.24-3.05-2.18-5.11-2.84c-2.06-0.66-4.49-0.98-7.3-0.98h-11.29v29.16H545.3z"/>
            <path class="st0" d="M670.19,192.75h-12.47c-1.8,0-3.42-0.24-4.86-0.73c-1.44-0.49-2.76-1.39-3.96-2.7l-11.91-13.15
				c-1.91,0.52-3.87,0.92-5.87,1.18c-2,0.26-4.09,0.39-6.26,0.39c-6.14,0-11.74-1.04-16.8-3.12c-5.06-2.08-9.39-4.97-13-8.68
				c-3.62-3.71-6.41-8.1-8.4-13.17c-1.99-5.07-2.98-10.59-2.98-16.54c0-5.96,0.99-11.47,2.98-16.54c1.98-5.08,4.78-9.47,8.4-13.17
				c3.61-3.71,7.95-6.6,13-8.68c5.06-2.08,10.65-3.12,16.8-3.12c4.12,0,8,0.48,11.63,1.43c3.63,0.95,6.97,2.3,10,4.04
				c3.03,1.74,5.76,3.86,8.17,6.35c2.42,2.49,4.47,5.27,6.15,8.34c1.69,3.07,2.97,6.4,3.85,10c0.88,3.6,1.32,7.38,1.32,11.35
				c0,3.63-0.37,7.11-1.12,10.42c-0.75,3.31-1.83,6.41-3.23,9.3c-1.4,2.88-3.12,5.53-5.14,7.95c-2.02,2.42-4.33,4.54-6.91,6.38
				L670.19,192.75z M599.12,136.23c0,4.46,0.6,8.45,1.8,11.99c1.2,3.54,2.91,6.54,5.14,8.99c2.23,2.45,4.92,4.33,8.09,5.65
				c3.16,1.31,6.73,1.97,10.7,1.97c3.97,0,7.54-0.65,10.7-1.97c3.16-1.31,5.85-3.19,8.06-5.65c2.21-2.45,3.91-5.45,5.11-8.99
				c1.2-3.54,1.8-7.54,1.8-11.99c0-4.46-0.6-8.46-1.8-11.99c-1.2-3.54-2.9-6.55-5.11-9.02c-2.21-2.47-4.9-4.36-8.06-5.67
				c-3.17-1.31-6.73-1.97-10.7-1.97c-3.97,0-7.54,0.66-10.7,1.97c-3.17,1.31-5.86,3.2-8.09,5.67c-2.23,2.47-3.94,5.48-5.14,9.02
				C599.72,127.77,599.12,131.77,599.12,136.23z"/>
            <path class="st0" d="M711.93,164.66c2.92,0,5.53-0.49,7.84-1.46c2.3-0.97,4.24-2.34,5.81-4.1c1.57-1.76,2.78-3.89,3.62-6.4
				c0.84-2.51,1.26-5.32,1.26-8.43V95.61h15.11v48.65c0,4.83-0.78,9.3-2.33,13.4c-1.55,4.1-3.78,7.64-6.69,10.62
				c-2.9,2.98-6.43,5.3-10.59,6.97c-4.16,1.67-8.84,2.5-14.05,2.5c-5.24,0-9.94-0.83-14.1-2.5c-4.16-1.67-7.69-3.99-10.59-6.97
				c-2.9-2.98-5.13-6.52-6.69-10.62c-1.55-4.1-2.33-8.57-2.33-13.4V95.61h15.11v48.59c0,3.11,0.42,5.92,1.26,8.43
				c0.84,2.51,2.06,4.65,3.65,6.43c1.59,1.78,3.54,3.16,5.84,4.13C706.39,164.17,709.01,164.66,711.93,164.66z"/>
            <path class="st0" d="M840.13,136.23c0,5.95-0.98,11.47-2.95,16.54c-1.97,5.08-4.75,9.47-8.34,13.17
				c-3.59,3.71-7.92,6.6-12.98,8.68c-5.06,2.08-10.67,3.12-16.85,3.12c-6.14,0-11.74-1.04-16.8-3.12c-5.06-2.08-9.39-4.97-13-8.68
				c-3.62-3.71-6.41-8.1-8.4-13.17c-1.99-5.07-2.98-10.59-2.98-16.54c0-5.96,0.99-11.47,2.98-16.54c1.98-5.08,4.78-9.47,8.4-13.17
				c3.61-3.71,7.95-6.6,13-8.68c5.06-2.08,10.65-3.12,16.8-3.12c4.12,0,8,0.48,11.63,1.43c3.63,0.95,6.97,2.3,10,4.04
				c3.03,1.74,5.76,3.86,8.17,6.35c2.42,2.49,4.47,5.27,6.15,8.34c1.69,3.07,2.97,6.4,3.85,10
				C839.68,128.48,840.13,132.26,840.13,136.23z M824.68,136.23c0-4.46-0.6-8.46-1.8-11.99c-1.2-3.54-2.9-6.55-5.11-9.02
				c-2.21-2.47-4.9-4.36-8.06-5.67c-3.16-1.31-6.73-1.97-10.7-1.97c-3.97,0-7.54,0.66-10.7,1.97c-3.17,1.31-5.86,3.2-8.09,5.67
				c-2.23,2.47-3.94,5.48-5.14,9.02c-1.2,3.54-1.8,7.54-1.8,11.99c0,4.46,0.6,8.45,1.8,11.99c1.2,3.54,2.91,6.54,5.14,8.99
				c2.23,2.45,4.92,4.33,8.09,5.65c3.16,1.31,6.73,1.97,10.7,1.97c3.97,0,7.54-0.65,10.7-1.97c3.16-1.31,5.85-3.19,8.06-5.65
				c2.21-2.45,3.91-5.45,5.11-8.99C824.08,144.68,824.68,140.69,824.68,136.23z"/>
            <path class="st0" d="M909.23,157.69c0.82,0,1.55,0.32,2.19,0.95l5.96,6.46c-3.3,4.08-7.35,7.21-12.16,9.38
				c-4.81,2.17-10.59,3.26-17.33,3.26c-6.03,0-11.45-1.03-16.26-3.09c-4.81-2.06-8.92-4.92-12.33-8.6
				c-3.41-3.67-6.02-8.05-7.84-13.15c-1.82-5.09-2.72-10.65-2.72-16.68c0-6.1,0.97-11.69,2.92-16.77c1.95-5.08,4.69-9.45,8.23-13.12
				c3.54-3.67,7.76-6.53,12.67-8.57c4.91-2.04,10.34-3.06,16.29-3.06c5.92,0,11.17,0.97,15.76,2.92c4.59,1.95,8.49,4.49,11.71,7.64
				l-5.06,7.02c-0.3,0.45-0.68,0.84-1.15,1.18c-0.47,0.34-1.11,0.51-1.94,0.51c-0.56,0-1.14-0.16-1.74-0.48
				c-0.6-0.32-1.26-0.71-1.97-1.18c-0.71-0.47-1.54-0.98-2.47-1.54c-0.94-0.56-2.02-1.08-3.26-1.54c-1.24-0.47-2.67-0.86-4.3-1.18
				c-1.63-0.32-3.51-0.48-5.65-0.48c-3.63,0-6.96,0.65-9.97,1.94c-3.01,1.29-5.61,3.17-7.78,5.62c-2.17,2.45-3.86,5.45-5.06,8.99
				c-1.2,3.54-1.8,7.58-1.8,12.11c0,4.57,0.65,8.63,1.94,12.19s3.04,6.55,5.25,8.99c2.21,2.44,4.81,4.3,7.81,5.59
				c3,1.29,6.22,1.94,9.66,1.94c2.06,0,3.92-0.11,5.59-0.34c1.67-0.22,3.2-0.58,4.61-1.07c1.4-0.49,2.73-1.11,3.99-1.88
				c1.25-0.77,2.5-1.71,3.74-2.84c0.37-0.34,0.77-0.61,1.18-0.81C908.35,157.79,908.78,157.69,909.23,157.69z"/>
            <path class="st0" d="M984.5,108.03h-24.49v68.82H944.9v-68.82H920.4V95.61h64.1V108.03z"/>
            <path class="st0" d="M1010.35,107.64v22.53h28.43v11.63h-28.43v22.98h36.07v12.08h-51.23V95.61h51.23v12.02H1010.35z"/>
            <path class="st1" d="M1053.84,171.94c0-0.75,0.14-1.46,0.42-2.13c0.28-0.67,0.65-1.25,1.14-1.73c0.48-0.48,1.06-0.87,1.73-1.16
				c0.67-0.29,1.4-0.43,2.17-0.43c0.77,0,1.49,0.14,2.15,0.43c0.66,0.29,1.24,0.67,1.73,1.16c0.49,0.48,0.88,1.06,1.17,1.73
				c0.29,0.67,0.43,1.39,0.43,2.13c0,0.77-0.14,1.49-0.43,2.15c-0.29,0.66-0.68,1.23-1.17,1.72c-0.49,0.48-1.07,0.86-1.73,1.14
				s-1.38,0.42-2.15,0.42c-0.77,0-1.49-0.14-2.17-0.42s-1.25-0.66-1.73-1.14c-0.48-0.48-0.86-1.05-1.14-1.72
				C1053.98,173.42,1053.84,172.71,1053.84,171.94z"/>
            <path class="st1" d="M1098.84,147.63c-0.27,0.34-0.52,0.6-0.78,0.79c-0.25,0.19-0.62,0.29-1.1,0.29c-0.46,0-0.9-0.14-1.34-0.42
				c-0.43-0.28-0.95-0.59-1.55-0.94c-0.6-0.35-1.32-0.66-2.15-0.94c-0.83-0.28-1.86-0.42-3.09-0.42c-1.57,0-2.94,0.28-4.12,0.85
				c-1.18,0.57-2.16,1.38-2.94,2.44c-0.78,1.06-1.37,2.34-1.75,3.85c-0.39,1.51-0.58,3.21-0.58,5.11c0,1.97,0.21,3.73,0.63,5.27
				c0.42,1.54,1.03,2.84,1.82,3.88c0.79,1.05,1.76,1.84,2.89,2.38s2.41,0.81,3.83,0.81c1.42,0,2.57-0.17,3.45-0.52
				c0.88-0.35,1.62-0.73,2.22-1.16c0.6-0.42,1.13-0.81,1.57-1.16c0.45-0.35,0.95-0.52,1.5-0.52c0.72,0,1.26,0.28,1.62,0.83
				l2.57,3.25c-0.99,1.16-2.06,2.12-3.22,2.91c-1.16,0.78-2.35,1.41-3.59,1.88c-1.24,0.47-2.52,0.8-3.83,0.99
				c-1.31,0.19-2.62,0.29-3.92,0.29c-2.29,0-4.44-0.43-6.47-1.28c-2.02-0.85-3.79-2.1-5.31-3.74c-1.52-1.64-2.71-3.64-3.59-6.01
				c-0.88-2.37-1.32-5.07-1.32-8.11c0-2.72,0.39-5.24,1.17-7.57c0.78-2.32,1.93-4.33,3.45-6.03c1.52-1.7,3.4-3.03,5.63-3.99
				c2.24-0.96,4.81-1.44,7.73-1.44c2.77,0,5.19,0.45,7.28,1.34c2.08,0.89,3.96,2.17,5.62,3.83L1098.84,147.63z"/>
            <path class="st1" d="M1122.86,139.22c2.74,0,5.24,0.45,7.49,1.34c2.25,0.89,4.18,2.16,5.78,3.79c1.6,1.64,2.83,3.64,3.7,6
				c0.87,2.36,1.3,5,1.3,7.91c0,2.94-0.43,5.59-1.3,7.95c-0.87,2.36-2.1,4.37-3.7,6.03c-1.6,1.66-3.53,2.94-5.78,3.83
				c-2.25,0.89-4.75,1.34-7.49,1.34c-2.77,0-5.28-0.45-7.55-1.34c-2.26-0.89-4.2-2.17-5.8-3.83c-1.6-1.66-2.84-3.67-3.72-6.03
				c-0.88-2.36-1.32-5.01-1.32-7.95c0-2.91,0.44-5.55,1.32-7.91c0.88-2.36,2.12-4.36,3.72-6c1.6-1.64,3.53-2.9,5.8-3.79
				C1117.58,139.66,1120.09,139.22,1122.86,139.22z M1122.86,170.53c3.08,0,5.36-1.04,6.84-3.11c1.48-2.07,2.22-5.1,2.22-9.1
				c0-4-0.74-7.04-2.22-9.14c-1.48-2.09-3.76-3.14-6.84-3.14c-3.13,0-5.45,1.05-6.95,3.16c-1.51,2.11-2.26,5.15-2.26,9.12
				c0,3.97,0.75,7,2.26,9.08C1117.41,169.49,1119.73,170.53,1122.86,170.53z"/>
            <path class="st1" d="M1147.96,176.85v-37.05h5.45c1.16,0,1.91,0.54,2.27,1.63l0.58,2.74c0.65-0.72,1.33-1.38,2.04-1.99
				c0.71-0.6,1.47-1.12,2.28-1.55c0.81-0.43,1.67-0.78,2.6-1.03c0.93-0.25,1.94-0.38,3.05-0.38c2.33,0,4.25,0.63,5.76,1.9
				c1.51,1.26,2.63,2.94,3.38,5.04c0.58-1.23,1.3-2.28,2.17-3.16c0.87-0.88,1.82-1.59,2.85-2.15c1.03-0.55,2.14-0.96,3.3-1.23
				c1.17-0.26,2.34-0.4,3.52-0.4c2.05,0,3.87,0.31,5.45,0.94c1.59,0.63,2.92,1.54,4.01,2.74c1.08,1.2,1.91,2.67,2.47,4.41
				c0.57,1.73,0.85,3.72,0.85,5.96v23.58h-8.92v-23.58c0-2.36-0.52-4.14-1.55-5.33c-1.04-1.19-2.55-1.79-4.55-1.79
				c-0.91,0-1.76,0.16-2.55,0.47c-0.78,0.31-1.47,0.76-2.06,1.35c-0.59,0.59-1.05,1.33-1.39,2.22c-0.34,0.89-0.51,1.91-0.51,3.07
				v23.58h-8.96v-23.58c0-2.48-0.5-4.29-1.5-5.42c-1-1.13-2.46-1.7-4.39-1.7c-1.3,0-2.51,0.32-3.63,0.96
				c-1.12,0.64-2.16,1.51-3.12,2.62v27.12H1147.96z"/>
		</g>
	</g>
        <g>
		<path class="st1" d="M147.83,31.17H70.46c-4.01,0-7.25-3.25-7.25-7.25s3.25-7.25,7.25-7.25h77.37c4.01,0,7.25,3.25,7.25,7.25
			S151.83,31.17,147.83,31.17z"/>
            <path class="st1" d="M131.74,92.19H54.38c-4.01,0-7.25-3.25-7.25-7.25c0-4,3.25-7.25,7.25-7.25h77.37c4.01,0,7.25,3.25,7.25,7.25
			C139,88.94,135.75,92.19,131.74,92.19z"/>
            <path class="st1" d="M116.08,61.44h-91.9c-4,0-7.24-3.25-7.24-7.25s3.24-7.25,7.24-7.25h91.9c4,0,7.24,3.25,7.24,7.25
			S120.08,61.44,116.08,61.44z"/>

            <ellipse transform="matrix(0.6004 -0.7997 0.7997 0.6004 -89.8171 160.5406)" class="st0" cx="115.73" cy="170.14" rx="23.19" ry="21.52"/>
            <path class="st0" d="M363.43,0H181.35c-2.21,0-4.13,1.49-4.68,3.63l-24.79,96.11c-1.18,4.59,2.28,9.07,7.02,9.07h93.13
			c4.01,0,7.25,3.25,7.25,7.25c0,4-3.25,7.25-7.25,7.25H15.5c-2.12,0-3.99,1.38-4.62,3.41L0.33,160.9
			c-1.44,4.67,2.05,9.39,6.93,9.39h79.19c0.46-9.07,4.89-18.05,12.79-23.92c5.36-3.98,11.6-6.09,18.05-6.09
			c9.25,0,17.82,4.5,22.94,12.05c3.64,5.37,5.15,11.69,4.77,17.96h42.67c0.46-9.07,4.89-18.05,12.79-23.92
			c5.36-3.98,11.6-6.09,18.06-6.09c9.25,0,17.82,4.5,22.94,12.05c3.64,5.37,5.15,11.69,4.77,17.96h42.56c2.19,0,4.1-1.47,4.67-3.58
			l25.68-95.77c1.24-4.61-2.24-9.13-7.01-9.13h-92.51c-4.01,0-7.25-3.25-7.25-7.25s3.25-7.25,7.25-7.25h136.05
			c2.15,0,4.04-1.42,4.64-3.48l10.07-34.54C371.75,4.64,368.26,0,363.43,0z"/>

            <ellipse transform="matrix(0.6004 -0.7997 0.7997 0.6004 -49.3645 241.4952)" class="st0" cx="216.96" cy="170.14" rx="23.19" ry="21.52"/>
	</g>
</g>
</svg>
