<svg xmlns="http://www.w3.org/2000/svg" xmlns:xlink="http://www.w3.org/1999/xlink" viewBox="0 0 1438 898"><style type="text/css">	.st0{fill:#F4F6F8;}	.st1{clip-path:url(#SVGID_2_);}	.st2{fill:#EFF2F5;}	.st3{opacity:0.5;}	.st4{fill:#FDFDFD;}	.st5{fill:#F9FAFB;}	.st6{fill:#E4E9EE;}	.st7{fill:#E0E6EC;}	.st8{opacity:0.5;fill:#FDFDFD;enable-background:new    ;}</style><rect x="1" y="1.6" class="st0" width="1432.3" height="895.7"/><defs><rect width="1438" height="898"/></defs><clipPath><use xlink:href="#SVGID_1_"/></clipPath><g class="st1"><path class="st2" d="M1578.5 258.8v447.1l-430.6 695v-298.7V256.4C1203.1 257 1407.6 258.4 1578.5 258.8z"/><g class="st3"><rect x="288" y="-0.4" class="st4" width="430.5" height="414"/><rect x="720.1" y="3.3" class="st2" width="427.6" height="109.2"/><polygon class="st4" points="1571.6 1815.9 1150.3 1815.9 1147.9 3.3 1571.6 3.3 "/><rect x="720.1" y="112.1" class="st5" width="427.6" height="222"/><rect x="720.1" y="333.5" class="st6" width="427.6" height="81"/><rect x="-275.9" y="1203.9" class="st4" width="557.7" height="312.9"/><rect x="-102.8" y="686.5" class="st4" width="666.4" height="106.7"/><rect x="-102.8" y="793.2" class="st2" width="666.4" height="120.7"/><g class="st3"><rect x="281.8" y="685.5" class="st7" width="281.9" height="221.4"/></g><rect x="-768.6" y="144.8" class="st2" width="734.6" height="149.6"/><rect x="-770.6" y="3.3" class="st2" width="442.4" height="99"/><rect x="-757.6" y="691.7" class="st4" width="511.8" height="447.1"/><polyline class="st0" points="-30.3 689.3 151.3 689.3 -22.2 917.2 "/><polyline class="st6" points="-28.3 922.2 -242 922.2 -242 694.3 -28.3 694.3 "/><rect x="561.4" y="414.5" class="st6" width="469.4" height="502.5"/><polygon class="st4" points="283.4 411.8 -30.3 692.7 -30.3 416.9 "/><polygon class="st6" points="-32 690.7 282 409.8 564.7 411.3 564.7 685.6 "/><polygon class="st4" points="25.3 1208.6 -244.6 920 291.5 920 "/><polygon class="st2" points="36.8 1201.7 -241.8 1505 -241.8 924.7 "/><rect x="-461.1" y="292.1" class="st6" width="429.2" height="99"/><rect x="-461.1" y="457.1" class="st2" width="429.2" height="238.2"/><rect x="-275.9" y="1504" class="st2" width="561.1" height="315.6"/><rect x="-461.1" y="387.5" class="st4" width="429.2" height="39.6"/><rect x="-461.1" y="431.3" class="st6" width="429.2" height="26.8"/><rect x="-293.5" y="1138.7" class="st6" width="52" height="680.8"/><rect x="-307.1" y="1138.7" class="st4" width="18.7" height="680.8"/><rect x="-390.5" y="1138.7" class="st6" width="77.3" height="680.8"/><rect x="-504" y="1138.7" class="st6" width="185.1" height="680.8"/><rect x="-547.2" y="1138.7" class="st4" width="38.8" height="680.8"/><rect x="-759.9" y="1138.7" class="st2" width="212.3" height="680.8"/><polygon class="st6" points="104.8 148.6 -324.4 148.6 -324.4 3.3 -142.7 3.3 "/><polygon class="st4" points="-144 3.3 285.2 3.3 285.2 236.3 237.5 236.3 "/><polygon class="st5" points="-239.9 713.6 -753.8 713.6 -753.8 290.5 -456.1 290.5 "/><polygon class="st5" points="1027.6 1208.6 285.2 1208.6 285.2 1819.8 715.2 1819.8 "/><path class="st6" d="M520 2.1c0 127.8-103.7 231.5-231.5 231.5V2.1H520z"/><path class="st5" d="M72.4 1504c0 172.1-139.4 311.5-311.5 311.5V1504H72.4z"/><rect x="1577.9" y="1.9" class="st2" width="560.3" height="271.7"/><path class="st2" d="M1147.9-0.1c234.4 0 414.4 187.3 414.4 418.2h-414.4V-0.1z"/><polygon class="st2" points="1576.9 400.5 1837.5 401.7 1837.5 5.8 1576.9 5.8 "/><path class="st4" d="M1840.1-0.1c-144.9 0-262.4 117.5-262.4 262.4h262.4V-0.1z"/><path class="st2" d="M72.4 1497.5C72.4 1325.4-67 1186-239.1 1186v311.5H72.4z"/><path class="st2" d="M-26.1 1270.2l-208.8 227.3h-4.3V1186C-156.7 1186-81.9 1217.9-26.1 1270.2z"/><path class="st6" d="M-26.1 1270.2l-208.8 227.3h-4.3V1186C-156.7 1186-81.9 1217.9-26.1 1270.2z"/><path class="st2" d="M564.5 411c-0.4-163.6-133.3-295.9-296.9-295.5C104 116-28.1 249.1-27.7 412.7L564.5 411z"/><path class="st6" d="M444.3 173.6c-41.2 37.3-95.8 60.3-155.9 60.3V116.4C346.5 120.2 400.1 140.9 444.3 173.6z"/><path class="st4" d="M444.3 173.6c-41.2 37.3-95.8 60.3-155.9 60.3V116.4C346.5 120.2 400.1 140.9 444.3 173.6z"/><polygon class="st4" points="288.5 116.4 288.5 416.9 -144 3.3 288.5 3.3 "/><path class="st2" d="M288.5 116.4v295.5h-5.3L61.6 200c53.2-52 125.8-84 206-84.2C274.7 115.8 281.6 116 288.5 116.4z"/><rect x="1577.9" y="413.9" class="st6" width="358.2" height="348.8"/><rect x="1577.9" y="1267.6" class="st6" width="395.1" height="552.4"/><path class="st7" d="M288.5 116.4v300.5l-5.3-5.1L61.6 200c53.2-52 125.8-84 206-84.2C274.7 115.8 281.6 116 288.5 116.4z"/><polygon class="st8" points="-239.1 1511.9 -559.8 1819.6 -768.6 1819.6 -768.6 922 -241.8 922 "/><path class="st2" d="M-241.8 698c0 141-114.2 255.3-255.3 255.3S-752.6 839-752.6 698H-241.8z"/><path class="st2" d="M1936.7 424.6c-92.7 0-167.8 75.1-167.8 167.8s75.1 167.8 167.8 167.8V424.6z"/><path class="st2" d="M563.7 413.3c138.4 0 261.8 112.2 261.8 250.6S702.1 914.5 563.7 914.5V413.3z"/><path class="st2" d="M563.7 425.4c138.4 0 261.8 112.2 261.8 250.6S702.1 926.7 563.7 926.7V425.4z"/><path class="st6" d="M1574.3 763.5c138.4 0 261.8 112.2 261.8 250.6s-123.4 250.6-261.8 250.6V763.5z"/><polygon class="st2" points="283.2 1208.6 899.1 1819.6 287.9 1819.6 "/><polygon class="st5" points="775.7 1701.3 715.2 1819.8 285.2 1819.8 285.2 1210.6 "/><polygon class="st7" points="775.7 1699.4 715.2 1819.6 287.9 1819.6 285.2 1470.7 283.2 1208.6 285.2 1210.6 "/><polygon class="st0" points="1577.9 420 1936.1 420 1936.1 762.7 "/><path class="st2" d="M1936.7 424.6v326.5h-0.6c-4.3 0-8.5-0.2-12.6-0.6L1774.8 608c-0.8-6.7-1.2-13.4-1.2-20.5 0-89.9 72.9-163 162.8-163.4h0.4v0.5H1936.7z"/><path class="st4" d="M1936.1 412.7V763l-13-12.6 -154-147.5c-0.8-6.9-1.2-14-1.2-21.1C1767.6 488.6 1842.9 412.9 1936.1 412.7z"/><rect x="1577.9" y="333.5" class="st6" width="560.3" height="81"/><polygon class="st6" points="1936.1 762.7 2142.1 935 2142.1 1819.8 1944.8 1819.8 "/><path class="st5" d="M1840.1 262.3l-692.2 1134.8V261.5C1147.9 261.5 1840.1 267 1840.1 262.3z"/><polygon class="st6" points="1744.9 420 1683.8 521.4 1577.9 420 "/><polygon class="st7" points="1744.9 420 1683.8 521.4 1577.9 420 "/><rect x="281.8" y="1465.5" class="st2" width="1864.3" height="156.5"/><polygon class="st5" points="896.3 1465.5 816.3 1621.9 285.2 1621.9 285.2 1465.5 "/><polygon class="st4" points="896.3 1465.5 816.3 1621.9 285.2 1621.9 285.2 1465.5 "/><path class="st2" d="M1562.3 418.1h-414.4V261.7c24.4 0.2 208 1.6 385.6 2.2C1552.1 311.6 1562.3 363.6 1562.3 418.1z"/><path class="st4" d="M1562.3 418.1h-414.4V261.7c0 0-1.6 0 0 0 24.4 0.2 208 1.6 385.6 2.2C1552.1 311.6 1562.3 363.6 1562.3 418.1z"/><polygon class="st0" points="2142.1 1466.9 1936.5 1821 1577.9 1267.6 2142.1 1267.6 "/><polygon class="st2" points="2142.1 1465.5 2142.1 1469.5 2054.8 1621.9 1804.6 1621.9 1704.5 1465.5 "/><polygon class="st4" points="2142.1 1465.5 2142.1 1469.5 2054.8 1621.9 1804.6 1621.9 1704.5 1465.5 "/><polygon class="st5" points="2144.1 1270.4 1000.6 1270.4 1147.9 1014.6 2142.1 1014.6 "/><polygon class="st6" points="2142.1 1014.6 2142.1 1270.4 1940.3 1270.4 1938.1 1014.6 "/><polygon class="st2" points="2142.1 1014.6 2142.1 1270.4 1940.3 1270.4 1938.1 1014.6 "/><polygon class="st2" points="1386.3 1014.6 1231.9 1270.4 1147.9 1270.4 1147.9 1100.8 1147.9 1014.6 "/><polygon class="st6" points="1386.3 1014.6 1231.9 1270.4 1147.9 1270.4 1147.9 1100.8 1147.9 1014.6 "/><path class="st6" d="M1836 1014.1v0.4c-0.2 138.2-123.4 250.2-261.8 250.2V763.5C1712.7 763.5 1836 875.7 1836 1014.1z"/><path class="st4" d="M1836 1014.6c-0.2 138.2-123.4 250.2-261.8 250.2v-250.2L1836 1014.6 1836 1014.6z"/><path class="st2" d="M1546.2 414c0 223.2-175.1 404-398.4 404V414H1546.2z"/><path class="st4" d="M1419.4 717.3L1146 415.6l0 0V829C1253.8 829.1 1346.4 786.7 1419.4 717.3z"/></g></g></svg>
